<mxfile host="app.diagrams.net" agent="Mozilla/5.0 (Windows NT 10.0; Win64; x64) AppleWebKit/537.36 (KHTML, like Gecko) Chrome/131.0.0.0 Safari/537.36 Edg/131.0.0.0" version="24.9.2" pages="2">
  <diagram name="Page-1" id="u5HNuBVhndBwtkaAh5eQ">
    <mxGraphModel dx="786" dy="457" grid="1" gridSize="10" guides="1" tooltips="1" connect="1" arrows="1" fold="1" page="1" pageScale="1" pageWidth="1654" pageHeight="2336" math="0" shadow="0">
      <root>
        <mxCell id="0" />
        <mxCell id="1" parent="0" />
        <mxCell id="dc7DOvgoO3kcszVrloIV-30" value="Start" style="whiteSpace=wrap;strokeWidth=2;fillColor=#f8cecc;strokeColor=#b85450;" vertex="1" parent="1">
          <mxGeometry x="311.5" y="10" width="95" height="49" as="geometry" />
        </mxCell>
        <mxCell id="dc7DOvgoO3kcszVrloIV-31" value="Identify Elements in CMC Module 3&#xa;&#xa;Identify data elements within the CMC Module 3 domain that require governance." style="whiteSpace=wrap;strokeWidth=2;fillColor=#d5e8d4;strokeColor=#82b366;" vertex="1" parent="1">
          <mxGeometry x="238.5" y="90" width="239" height="119" as="geometry" />
        </mxCell>
        <mxCell id="dc7DOvgoO3kcszVrloIV-32" value="Collect Data and Insights&#xa;&#xa;Gather detailed information and insights about each identified data element." style="whiteSpace=wrap;strokeWidth=2;fillColor=#d5e8d4;strokeColor=#82b366;" vertex="1" parent="1">
          <mxGeometry x="232.5" y="240" width="251" height="119" as="geometry" />
        </mxCell>
        <mxCell id="dc7DOvgoO3kcszVrloIV-33" value="Determine Data Ownership&#xa;&#xa;Identify who is responsible for each data element." style="whiteSpace=wrap;strokeWidth=2;fillColor=#d5e8d4;strokeColor=#82b366;" vertex="1" parent="1">
          <mxGeometry x="231.5" y="400" width="255" height="101" as="geometry" />
        </mxCell>
        <mxCell id="dc7DOvgoO3kcszVrloIV-34" value="Does the Data Owner know about the element?" style="rhombus;strokeWidth=2;whiteSpace=wrap;fillColor=#d5e8d4;strokeColor=#82b366;" vertex="1" parent="1">
          <mxGeometry x="230" y="560" width="260" height="260" as="geometry" />
        </mxCell>
        <mxCell id="dc7DOvgoO3kcszVrloIV-35" value="Determine the Organization&#xa;&#xa;Identify the organization or team responsible for the data element." style="whiteSpace=wrap;strokeWidth=2;fillColor=#d5e8d4;strokeColor=#82b366;" vertex="1" parent="1">
          <mxGeometry x="250" y="910" width="248" height="119" as="geometry" />
        </mxCell>
        <mxCell id="dc7DOvgoO3kcszVrloIV-38" value="Is the data structured or dark?" style="rhombus;strokeWidth=2;whiteSpace=wrap;fillColor=#d5e8d4;strokeColor=#82b366;" vertex="1" parent="1">
          <mxGeometry x="256" y="1160" width="242" height="242" as="geometry" />
        </mxCell>
        <mxCell id="dc7DOvgoO3kcszVrloIV-39" value="Review Structured Data&#xa;&#xa;Review the existing process for handling structured data.&#xa;Continue using the existing process if it meets the requirements." style="whiteSpace=wrap;strokeWidth=2;fillColor=#d5e8d4;strokeColor=#82b366;" vertex="1" parent="1">
          <mxGeometry x="80" y="1513" width="260" height="137" as="geometry" />
        </mxCell>
        <mxCell id="dc7DOvgoO3kcszVrloIV-40" value="Review Dark Data&#xa;&#xa;Understand the current process for handling dark data.&#xa;Work with stakeholders to develop a process to convert dark data into structured data." style="whiteSpace=wrap;strokeWidth=2;fillColor=#d5e8d4;strokeColor=#82b366;" vertex="1" parent="1">
          <mxGeometry x="426" y="1520" width="251" height="172" as="geometry" />
        </mxCell>
        <mxCell id="dc7DOvgoO3kcszVrloIV-41" value="Determine Data Phase&#xa;&#xa;&#xa;Identify which phase of the data life-cycle the element belongs to: creation, storage, usage, archival." style="whiteSpace=wrap;strokeWidth=2;fillColor=#d5e8d4;strokeColor=#82b366;" vertex="1" parent="1">
          <mxGeometry x="266" y="1760" width="258" height="137" as="geometry" />
        </mxCell>
        <mxCell id="dc7DOvgoO3kcszVrloIV-42" value="Develop Future Processes&#xa;&#xa;&#xa;For dark data, create a plan to convert it into structured data.&#xa;Collaborate with stakeholders to ensure the new process is efficient and meets regulatory requirements." style="whiteSpace=wrap;strokeWidth=2;fillColor=#d5e8d4;strokeColor=#82b366;" vertex="1" parent="1">
          <mxGeometry x="266" y="1970" width="251" height="189" as="geometry" />
        </mxCell>
        <mxCell id="dc7DOvgoO3kcszVrloIV-43" value="End" style="whiteSpace=wrap;strokeWidth=2;fillColor=#f8cecc;strokeColor=#b85450;" vertex="1" parent="1">
          <mxGeometry x="636" y="2040" width="86" height="49" as="geometry" />
        </mxCell>
        <mxCell id="dc7DOvgoO3kcszVrloIV-44" value="" style="curved=1;startArrow=none;endArrow=block;exitX=0.5;exitY=0.99;entryX=0.5;entryY=0;rounded=0;" edge="1" parent="1" target="dc7DOvgoO3kcszVrloIV-31">
          <mxGeometry relative="1" as="geometry">
            <Array as="points" />
            <mxPoint x="358" y="59" as="sourcePoint" />
          </mxGeometry>
        </mxCell>
        <mxCell id="dc7DOvgoO3kcszVrloIV-45" value="" style="curved=1;startArrow=none;endArrow=block;exitX=0.5;exitY=1;entryX=0.5;entryY=0;rounded=0;" edge="1" parent="1" source="dc7DOvgoO3kcszVrloIV-31" target="dc7DOvgoO3kcszVrloIV-32">
          <mxGeometry relative="1" as="geometry">
            <Array as="points" />
          </mxGeometry>
        </mxCell>
        <mxCell id="dc7DOvgoO3kcszVrloIV-46" value="" style="curved=1;startArrow=none;endArrow=block;exitX=0.5;exitY=1;entryX=0.5;entryY=0;rounded=0;" edge="1" parent="1" source="dc7DOvgoO3kcszVrloIV-32" target="dc7DOvgoO3kcszVrloIV-33">
          <mxGeometry relative="1" as="geometry">
            <Array as="points" />
          </mxGeometry>
        </mxCell>
        <mxCell id="dc7DOvgoO3kcszVrloIV-47" value="" style="curved=1;startArrow=none;endArrow=block;exitX=0.5;exitY=1;entryX=0.5;entryY=0;rounded=0;" edge="1" parent="1" source="dc7DOvgoO3kcszVrloIV-33" target="dc7DOvgoO3kcszVrloIV-34">
          <mxGeometry relative="1" as="geometry">
            <Array as="points" />
          </mxGeometry>
        </mxCell>
        <mxCell id="dc7DOvgoO3kcszVrloIV-51" value="" style="curved=1;startArrow=none;endArrow=block;exitX=0.5;exitY=1;rounded=0;" edge="1" parent="1" source="dc7DOvgoO3kcszVrloIV-35">
          <mxGeometry relative="1" as="geometry">
            <Array as="points" />
            <mxPoint x="376" y="1160" as="targetPoint" />
          </mxGeometry>
        </mxCell>
        <mxCell id="dc7DOvgoO3kcszVrloIV-53" value="Structured Data" style="curved=1;startArrow=none;endArrow=block;exitX=0.02;exitY=1;entryX=0.5;entryY=0;rounded=0;" edge="1" parent="1" source="dc7DOvgoO3kcszVrloIV-38" target="dc7DOvgoO3kcszVrloIV-39">
          <mxGeometry x="-0.1302" y="18" relative="1" as="geometry">
            <Array as="points">
              <mxPoint x="140" y="1450" />
            </Array>
            <mxPoint as="offset" />
          </mxGeometry>
        </mxCell>
        <mxCell id="dc7DOvgoO3kcszVrloIV-54" value="Dark Data" style="curved=1;startArrow=none;endArrow=block;exitX=0.99;exitY=1;entryX=0.5;entryY=0;rounded=0;" edge="1" parent="1" source="dc7DOvgoO3kcszVrloIV-38" target="dc7DOvgoO3kcszVrloIV-40">
          <mxGeometry x="-0.0737" y="-12" relative="1" as="geometry">
            <Array as="points">
              <mxPoint x="576" y="1440" />
              <mxPoint x="552" y="1520" />
            </Array>
            <mxPoint as="offset" />
          </mxGeometry>
        </mxCell>
        <mxCell id="dc7DOvgoO3kcszVrloIV-55" value="" style="curved=1;startArrow=none;endArrow=block;exitX=0.5;exitY=1;entryX=0.06;entryY=0;rounded=0;" edge="1" parent="1" target="dc7DOvgoO3kcszVrloIV-41">
          <mxGeometry relative="1" as="geometry">
            <Array as="points">
              <mxPoint x="246" y="1710" />
            </Array>
            <mxPoint x="266" y="1650" as="sourcePoint" />
          </mxGeometry>
        </mxCell>
        <mxCell id="dc7DOvgoO3kcszVrloIV-56" value="" style="curved=1;startArrow=none;endArrow=block;exitX=0.5;exitY=1;entryX=0.93;entryY=0;rounded=0;" edge="1" parent="1" source="dc7DOvgoO3kcszVrloIV-40" target="dc7DOvgoO3kcszVrloIV-41">
          <mxGeometry relative="1" as="geometry">
            <Array as="points">
              <mxPoint x="556" y="1720" />
            </Array>
          </mxGeometry>
        </mxCell>
        <mxCell id="dc7DOvgoO3kcszVrloIV-57" value="" style="curved=1;startArrow=none;endArrow=block;exitX=0.5;exitY=1;rounded=0;" edge="1" parent="1" source="dc7DOvgoO3kcszVrloIV-41">
          <mxGeometry relative="1" as="geometry">
            <Array as="points" />
            <mxPoint x="395" y="1970" as="targetPoint" />
          </mxGeometry>
        </mxCell>
        <mxCell id="dc7DOvgoO3kcszVrloIV-58" value="" style="curved=1;startArrow=none;endArrow=block;exitX=1;exitY=0.5;entryX=0;entryY=0.5;rounded=0;exitDx=0;exitDy=0;entryDx=0;entryDy=0;" edge="1" parent="1" source="dc7DOvgoO3kcszVrloIV-42" target="dc7DOvgoO3kcszVrloIV-43">
          <mxGeometry relative="1" as="geometry">
            <Array as="points" />
          </mxGeometry>
        </mxCell>
        <mxCell id="28No-BFLwqwlpfc9Jj6o-1" value="" style="endArrow=classic;html=1;rounded=0;exitX=0.5;exitY=1;exitDx=0;exitDy=0;entryX=0.449;entryY=-0.034;entryDx=0;entryDy=0;entryPerimeter=0;" edge="1" parent="1" source="dc7DOvgoO3kcszVrloIV-34" target="dc7DOvgoO3kcszVrloIV-35">
          <mxGeometry width="50" height="50" relative="1" as="geometry">
            <mxPoint x="436" y="770" as="sourcePoint" />
            <mxPoint x="486" y="720" as="targetPoint" />
          </mxGeometry>
        </mxCell>
        <mxCell id="28No-BFLwqwlpfc9Jj6o-2" value="Yes" style="edgeLabel;html=1;align=center;verticalAlign=middle;resizable=0;points=[];" vertex="1" connectable="0" parent="28No-BFLwqwlpfc9Jj6o-1">
          <mxGeometry x="0.0369" relative="1" as="geometry">
            <mxPoint y="1" as="offset" />
          </mxGeometry>
        </mxCell>
        <mxCell id="28No-BFLwqwlpfc9Jj6o-3" value="" style="endArrow=classic;html=1;rounded=0;exitX=1;exitY=0.5;exitDx=0;exitDy=0;entryX=1;entryY=0.5;entryDx=0;entryDy=0;" edge="1" parent="1" source="dc7DOvgoO3kcszVrloIV-34" target="dc7DOvgoO3kcszVrloIV-33">
          <mxGeometry width="50" height="50" relative="1" as="geometry">
            <mxPoint x="436" y="650" as="sourcePoint" />
            <mxPoint x="596" y="460" as="targetPoint" />
            <Array as="points">
              <mxPoint x="606" y="690" />
              <mxPoint x="606" y="451" />
            </Array>
          </mxGeometry>
        </mxCell>
        <mxCell id="28No-BFLwqwlpfc9Jj6o-4" value="No" style="edgeLabel;html=1;align=center;verticalAlign=middle;resizable=0;points=[];" vertex="1" connectable="0" parent="28No-BFLwqwlpfc9Jj6o-3">
          <mxGeometry x="-0.032" y="2" relative="1" as="geometry">
            <mxPoint as="offset" />
          </mxGeometry>
        </mxCell>
      </root>
    </mxGraphModel>
  </diagram>
  <diagram id="moB6d8P3v01s6rDw0Hw2" name="Page-2">
    <mxGraphModel dx="786" dy="457" grid="1" gridSize="10" guides="1" tooltips="1" connect="1" arrows="1" fold="1" page="1" pageScale="1" pageWidth="850" pageHeight="1100" math="0" shadow="0">
      <root>
        <mxCell id="0" />
        <mxCell id="1" parent="0" />
        <mxCell id="UJK95J7Djgk4s38sQd3O-1" value="Start" style="whiteSpace=wrap;strokeWidth=2;" vertex="1" parent="1">
          <mxGeometry x="257" y="20" width="95" height="49" as="geometry" />
        </mxCell>
        <mxCell id="UJK95J7Djgk4s38sQd3O-2" value="**Identify Elements in CMC Module 3**&#xa;&#xa;Identify data elements within the CMC Module 3 domain that require governance." style="whiteSpace=wrap;strokeWidth=2;fontStyle=1" vertex="1" parent="1">
          <mxGeometry x="179" y="110" width="255" height="119" as="geometry" />
        </mxCell>
        <mxCell id="UJK95J7Djgk4s38sQd3O-3" value="**Collect Data and Insights**&#xa;&#xa;Gather detailed information and insights about each identified data element." style="whiteSpace=wrap;strokeWidth=2;" vertex="1" parent="1">
          <mxGeometry x="179" y="288" width="251" height="119" as="geometry" />
        </mxCell>
        <mxCell id="UJK95J7Djgk4s38sQd3O-4" value="**Determine Data Ownership**&#xa;&#xa;Identify who is responsible for each data element." style="whiteSpace=wrap;strokeWidth=2;" vertex="1" parent="1">
          <mxGeometry x="176" y="457" width="256" height="101" as="geometry" />
        </mxCell>
        <mxCell id="UJK95J7Djgk4s38sQd3O-5" value="Does the Data Owner know about the element?" style="rhombus;strokeWidth=2;whiteSpace=wrap;" vertex="1" parent="1">
          <mxGeometry x="174" y="608" width="260" height="260" as="geometry" />
        </mxCell>
        <mxCell id="UJK95J7Djgk4s38sQd3O-6" value="**Determine the Organisation**&#xa;&#xa;Identify the organisation or team responsible for the data element." style="whiteSpace=wrap;strokeWidth=2;" vertex="1" parent="1">
          <mxGeometry x="183" y="1092" width="243" height="119" as="geometry" />
        </mxCell>
        <mxCell id="UJK95J7Djgk4s38sQd3O-7" value="**Inform Data Owner**&#xa;&#xa;Engage with the data owner to inform them and gather necessary details." style="whiteSpace=wrap;strokeWidth=2;" vertex="1" parent="1">
          <mxGeometry x="266" y="941" width="249" height="101" as="geometry" />
        </mxCell>
        <mxCell id="UJK95J7Djgk4s38sQd3O-8" value="**Classify the Data**&#xa;&#xa;Determine the structure of the data." style="whiteSpace=wrap;strokeWidth=2;" vertex="1" parent="1">
          <mxGeometry x="196" y="1261" width="216" height="84" as="geometry" />
        </mxCell>
        <mxCell id="UJK95J7Djgk4s38sQd3O-9" value="Is the data structured or dark?" style="rhombus;strokeWidth=2;whiteSpace=wrap;" vertex="1" parent="1">
          <mxGeometry x="183" y="1395" width="242" height="242" as="geometry" />
        </mxCell>
        <mxCell id="UJK95J7Djgk4s38sQd3O-10" value="**Review Structured Data**&#xa;&#xa;Review the existing process for handling structured data.&#xa;Continue using the existing process if it meets the requirements." style="whiteSpace=wrap;strokeWidth=2;" vertex="1" parent="1">
          <mxGeometry x="20" y="1719" width="260" height="137" as="geometry" />
        </mxCell>
        <mxCell id="UJK95J7Djgk4s38sQd3O-11" value="**Review Dark Data**&#xa;&#xa;Understand the current process for handling dark data.&#xa;Work with stakeholders to develop a process to convert dark data into structured data." style="whiteSpace=wrap;strokeWidth=2;" vertex="1" parent="1">
          <mxGeometry x="330" y="1710" width="258" height="154" as="geometry" />
        </mxCell>
        <mxCell id="UJK95J7Djgk4s38sQd3O-12" value="**Determine Data Phase**&#xa;&#xa;Identify which phase of the data life-cycle the element belongs to: creation, storage, usage, archival." style="whiteSpace=wrap;strokeWidth=2;" vertex="1" parent="1">
          <mxGeometry x="175" y="1914" width="258" height="137" as="geometry" />
        </mxCell>
        <mxCell id="UJK95J7Djgk4s38sQd3O-13" value="**Develop Future Processes**&#xa;&#xa;For dark data, create a plan to convert it into structured data.&#xa;Collaborate with stakeholders to ensure the new process is efficient and meets regulatory requirements." style="whiteSpace=wrap;strokeWidth=2;" vertex="1" parent="1">
          <mxGeometry x="176" y="2101" width="256" height="189" as="geometry" />
        </mxCell>
        <mxCell id="UJK95J7Djgk4s38sQd3O-14" value="End" style="whiteSpace=wrap;strokeWidth=2;" vertex="1" parent="1">
          <mxGeometry x="261" y="2340" width="86" height="49" as="geometry" />
        </mxCell>
        <mxCell id="UJK95J7Djgk4s38sQd3O-15" value="" style="curved=1;startArrow=none;endArrow=block;exitX=0.5;exitY=0.99;entryX=0.5;entryY=0;rounded=0;" edge="1" parent="1" source="UJK95J7Djgk4s38sQd3O-1" target="UJK95J7Djgk4s38sQd3O-2">
          <mxGeometry relative="1" as="geometry">
            <Array as="points" />
          </mxGeometry>
        </mxCell>
        <mxCell id="UJK95J7Djgk4s38sQd3O-16" value="" style="curved=1;startArrow=none;endArrow=block;exitX=0.5;exitY=1;entryX=0.5;entryY=0;rounded=0;" edge="1" parent="1" source="UJK95J7Djgk4s38sQd3O-2" target="UJK95J7Djgk4s38sQd3O-3">
          <mxGeometry relative="1" as="geometry">
            <Array as="points" />
          </mxGeometry>
        </mxCell>
        <mxCell id="UJK95J7Djgk4s38sQd3O-17" value="" style="curved=1;startArrow=none;endArrow=block;exitX=0.5;exitY=1;entryX=0.5;entryY=0;rounded=0;" edge="1" parent="1" source="UJK95J7Djgk4s38sQd3O-3" target="UJK95J7Djgk4s38sQd3O-4">
          <mxGeometry relative="1" as="geometry">
            <Array as="points" />
          </mxGeometry>
        </mxCell>
        <mxCell id="UJK95J7Djgk4s38sQd3O-18" value="" style="curved=1;startArrow=none;endArrow=block;exitX=0.5;exitY=1;entryX=0.5;entryY=0;rounded=0;" edge="1" parent="1" source="UJK95J7Djgk4s38sQd3O-4" target="UJK95J7Djgk4s38sQd3O-5">
          <mxGeometry relative="1" as="geometry">
            <Array as="points" />
          </mxGeometry>
        </mxCell>
        <mxCell id="UJK95J7Djgk4s38sQd3O-19" value="Yes" style="curved=1;startArrow=none;endArrow=block;exitX=0.24;exitY=1;entryX=0.25;entryY=0;rounded=0;" edge="1" parent="1" source="UJK95J7Djgk4s38sQd3O-5" target="UJK95J7Djgk4s38sQd3O-6">
          <mxGeometry relative="1" as="geometry">
            <Array as="points">
              <mxPoint x="218" y="904" />
              <mxPoint x="218" y="1067" />
            </Array>
          </mxGeometry>
        </mxCell>
        <mxCell id="UJK95J7Djgk4s38sQd3O-20" value="No" style="curved=1;startArrow=none;endArrow=block;exitX=0.76;exitY=1;entryX=0.5;entryY=0;rounded=0;" edge="1" parent="1" source="UJK95J7Djgk4s38sQd3O-5" target="UJK95J7Djgk4s38sQd3O-7">
          <mxGeometry relative="1" as="geometry">
            <Array as="points">
              <mxPoint x="391" y="904" />
            </Array>
          </mxGeometry>
        </mxCell>
        <mxCell id="UJK95J7Djgk4s38sQd3O-21" value="" style="curved=1;startArrow=none;endArrow=block;exitX=0.5;exitY=1;entryX=0.75;entryY=0;rounded=0;" edge="1" parent="1" source="UJK95J7Djgk4s38sQd3O-7" target="UJK95J7Djgk4s38sQd3O-6">
          <mxGeometry relative="1" as="geometry">
            <Array as="points">
              <mxPoint x="391" y="1067" />
            </Array>
          </mxGeometry>
        </mxCell>
        <mxCell id="UJK95J7Djgk4s38sQd3O-22" value="" style="curved=1;startArrow=none;endArrow=block;exitX=0.5;exitY=1;entryX=0.5;entryY=0;rounded=0;" edge="1" parent="1" source="UJK95J7Djgk4s38sQd3O-6" target="UJK95J7Djgk4s38sQd3O-8">
          <mxGeometry relative="1" as="geometry">
            <Array as="points" />
          </mxGeometry>
        </mxCell>
        <mxCell id="UJK95J7Djgk4s38sQd3O-23" value="" style="curved=1;startArrow=none;endArrow=block;exitX=0.5;exitY=1;entryX=0.5;entryY=0;rounded=0;" edge="1" parent="1" source="UJK95J7Djgk4s38sQd3O-8" target="UJK95J7Djgk4s38sQd3O-9">
          <mxGeometry relative="1" as="geometry">
            <Array as="points" />
          </mxGeometry>
        </mxCell>
        <mxCell id="UJK95J7Djgk4s38sQd3O-24" value="Structured Data" style="curved=1;startArrow=none;endArrow=block;exitX=0.01;exitY=1;entryX=0.5;entryY=0;rounded=0;" edge="1" parent="1" source="UJK95J7Djgk4s38sQd3O-9" target="UJK95J7Djgk4s38sQd3O-10">
          <mxGeometry relative="1" as="geometry">
            <Array as="points">
              <mxPoint x="150" y="1674" />
            </Array>
          </mxGeometry>
        </mxCell>
        <mxCell id="UJK95J7Djgk4s38sQd3O-25" value="Dark Data" style="curved=1;startArrow=none;endArrow=block;exitX=0.99;exitY=1;entryX=0.5;entryY=0;rounded=0;" edge="1" parent="1" source="UJK95J7Djgk4s38sQd3O-9" target="UJK95J7Djgk4s38sQd3O-11">
          <mxGeometry relative="1" as="geometry">
            <Array as="points">
              <mxPoint x="459" y="1674" />
            </Array>
          </mxGeometry>
        </mxCell>
        <mxCell id="UJK95J7Djgk4s38sQd3O-26" value="" style="curved=1;startArrow=none;endArrow=block;exitX=0.5;exitY=1;entryX=0.06;entryY=0;rounded=0;" edge="1" parent="1" source="UJK95J7Djgk4s38sQd3O-10" target="UJK95J7Djgk4s38sQd3O-12">
          <mxGeometry relative="1" as="geometry">
            <Array as="points">
              <mxPoint x="150" y="1889" />
            </Array>
          </mxGeometry>
        </mxCell>
        <mxCell id="UJK95J7Djgk4s38sQd3O-27" value="" style="curved=1;startArrow=none;endArrow=block;exitX=0.5;exitY=1;entryX=0.94;entryY=0;rounded=0;" edge="1" parent="1" source="UJK95J7Djgk4s38sQd3O-11" target="UJK95J7Djgk4s38sQd3O-12">
          <mxGeometry relative="1" as="geometry">
            <Array as="points">
              <mxPoint x="459" y="1889" />
            </Array>
          </mxGeometry>
        </mxCell>
        <mxCell id="UJK95J7Djgk4s38sQd3O-28" value="" style="curved=1;startArrow=none;endArrow=block;exitX=0.5;exitY=1;entryX=0.5;entryY=0;rounded=0;" edge="1" parent="1" source="UJK95J7Djgk4s38sQd3O-12" target="UJK95J7Djgk4s38sQd3O-13">
          <mxGeometry relative="1" as="geometry">
            <Array as="points" />
          </mxGeometry>
        </mxCell>
        <mxCell id="UJK95J7Djgk4s38sQd3O-29" value="" style="curved=1;startArrow=none;endArrow=block;exitX=0.5;exitY=1;entryX=0.5;entryY=0.01;rounded=0;" edge="1" parent="1" source="UJK95J7Djgk4s38sQd3O-13" target="UJK95J7Djgk4s38sQd3O-14">
          <mxGeometry relative="1" as="geometry">
            <Array as="points" />
          </mxGeometry>
        </mxCell>
      </root>
    </mxGraphModel>
  </diagram>
</mxfile>
